<svg width="16" height="16" viewBox="0 0 16 16" fill="none" xmlns="http://www.w3.org/2000/svg">
<path d="M11.9999 3.99992C11.5933 3.99992 11.2199 3.76659 11.0333 3.40659L10.5533 2.43992C10.2466 1.83325 9.44662 1.33325 8.76662 1.33325H7.23995C6.55328 1.33325 5.75328 1.83325 5.44662 2.43992L4.96662 3.40659C4.77995 3.76659 4.40662 3.99992 3.99995 3.99992C2.55328 3.99992 1.40662 5.21992 1.49995 6.65992L1.84662 12.1666C1.92662 13.5399 2.66662 14.6666 4.50662 14.6666H11.4933C13.3333 14.6666 14.0666 13.5399 14.1533 12.1666L14.4999 6.65992C14.5933 5.21992 13.4466 3.99992 11.9999 3.99992ZM6.99995 4.83325H8.99995C9.27328 4.83325 9.49995 5.05992 9.49995 5.33325C9.49995 5.60659 9.27328 5.83325 8.99995 5.83325H6.99995C6.72662 5.83325 6.49995 5.60659 6.49995 5.33325C6.49995 5.05992 6.72662 4.83325 6.99995 4.83325ZM7.99995 12.0799C6.75995 12.0799 5.74662 11.0733 5.74662 9.82659C5.74662 8.57992 6.75328 7.57325 7.99995 7.57325C9.24662 7.57325 10.2533 8.57992 10.2533 9.82659C10.2533 11.0733 9.23995 12.0799 7.99995 12.0799Z" fill="white"/>
</svg>
