<svg width="90" height="80" viewBox="0 0 90 80" fill="none" xmlns="http://www.w3.org/2000/svg">
<g clip-path="url(#clip0_645_4676)">
<path d="M86.9458 31.2625H3.05371V79.109H86.9458V31.2625Z" fill="white"/>
<path d="M86.9461 79.6366H3.054C2.91354 79.6366 2.77883 79.581 2.67951 79.4821C2.5802 79.3831 2.52441 79.2489 2.52441 79.109V31.2626C2.52441 31.1227 2.5802 30.9884 2.67951 30.8895C2.77883 30.7906 2.91354 30.7349 3.054 30.7349H86.9461C87.0861 30.7365 87.2199 30.7926 87.3189 30.8912C87.4179 30.9898 87.4742 31.1232 87.4757 31.2626V79.109C87.4757 79.2489 87.4199 79.3831 87.3206 79.4821C87.2213 79.581 87.0866 79.6366 86.9461 79.6366ZM3.58358 78.5814H86.4165V31.7901H3.58358V78.5814Z" fill="#D1193F"/>
<path d="M15.5343 53.4213H7.51403C6.89332 53.4213 6.39014 53.9226 6.39014 54.5409V70.5386C6.39014 71.157 6.89332 71.6582 7.51403 71.6582H15.5343C16.155 71.6582 16.6582 71.157 16.6582 70.5386V54.5409C16.6582 53.9226 16.155 53.4213 15.5343 53.4213Z" fill="white"/>
<path d="M15.5346 72.1916H7.51432C7.07525 72.1901 6.65469 72.0153 6.34477 71.7055C6.03485 71.3956 5.86084 70.9761 5.86084 70.5386V54.541C5.86084 54.1041 6.03504 53.685 6.34513 53.3761C6.65522 53.0672 7.07579 52.8937 7.51432 52.8937H15.5346C15.9731 52.8937 16.3937 53.0672 16.7038 53.3761C17.0139 53.685 17.1881 54.1041 17.1881 54.541V70.5386C17.1881 70.9761 17.0141 71.3956 16.7042 71.7055C16.3942 72.0153 15.9737 72.1901 15.5346 72.1916ZM7.51432 53.9489C7.35826 53.9489 7.2086 54.0105 7.09825 54.1205C6.9879 54.2304 6.92589 54.3796 6.92589 54.5351V70.5328C6.92589 70.6882 6.9879 70.8373 7.09825 70.9472C7.2086 71.0572 7.35826 71.119 7.51432 71.119H15.5346C15.6907 71.119 15.8403 71.0572 15.9507 70.9472C16.061 70.8373 16.123 70.6882 16.123 70.5328V54.5351C16.123 54.3796 16.061 54.2304 15.9507 54.1205C15.8403 54.0105 15.6907 53.9489 15.5346 53.9489H7.51432Z" fill="#D1193F"/>
<path d="M82.674 53.4213H74.6537C74.033 53.4213 73.5298 53.9226 73.5298 54.5409V70.5386C73.5298 71.157 74.033 71.6582 74.6537 71.6582H82.674C83.2947 71.6582 83.7979 71.157 83.7979 70.5386V54.5409C83.7979 53.9226 83.2947 53.4213 82.674 53.4213Z" fill="white"/>
<path d="M82.6684 72.1916H74.654C74.2149 72.1901 73.7944 72.0153 73.4844 71.7055C73.1745 71.3956 73.0005 70.9761 73.0005 70.5386V54.541C73.0005 54.1041 73.1747 53.685 73.4848 53.3761C73.7949 53.0672 74.2155 52.8937 74.654 52.8937H82.6684C83.1075 52.8937 83.5286 53.0671 83.8396 53.3758C84.1507 53.6846 84.3262 54.1035 84.3277 54.541V70.5386C84.3262 70.9766 84.1509 71.3961 83.84 71.7058C83.5291 72.0154 83.108 72.1901 82.6684 72.1916ZM74.654 53.9489C74.4979 53.9489 74.3482 54.0105 74.2379 54.1205C74.1275 54.2304 74.0656 54.3796 74.0656 54.5351V70.5328C74.0656 70.6882 74.1275 70.8373 74.2379 70.9472C74.3482 71.0572 74.4979 71.119 74.654 71.119H82.6684C82.8244 71.119 82.9741 71.0572 83.0845 70.9472C83.1948 70.8373 83.2568 70.6882 83.2568 70.5328V54.5351C83.2568 54.3796 83.1948 54.2304 83.0845 54.1205C82.9741 54.0105 82.8244 53.9489 82.6684 53.9489H74.654Z" fill="#D1193F"/>
<path d="M23.602 16.068H18.5415V4.77174H23.602V16.068Z" fill="white"/>
<path d="M23.5959 16.5956H18.5413C18.4008 16.5956 18.2662 16.54 18.1668 16.4411C18.0675 16.3421 18.0117 16.2079 18.0117 16.068V4.77169C18.0117 4.63176 18.0675 4.49766 18.1668 4.39872C18.2662 4.29978 18.4008 4.24416 18.5413 4.24416H23.5959C23.7363 4.24416 23.8711 4.29978 23.9704 4.39872C24.0697 4.49766 24.1255 4.63176 24.1255 4.77169V16.068C24.1255 16.2079 24.0697 16.3421 23.9704 16.4411C23.8711 16.54 23.7363 16.5956 23.5959 16.5956ZM19.0709 15.5404H23.0663V5.29936H19.0709V15.5404Z" fill="#D1193F"/>
<path d="M88.3875 34.8559H1.60625C1.43283 34.8561 1.26191 34.8146 1.10807 34.7349C0.954234 34.6551 0.822009 34.5395 0.722637 34.398C0.623264 34.2564 0.559688 34.0928 0.537316 33.9215C0.514945 33.7502 0.534449 33.5761 0.594152 33.4139L7.33164 14.9659C7.40831 14.7575 7.54794 14.5779 7.73131 14.452C7.91469 14.326 8.13276 14.2598 8.35549 14.2625L81.4676 14.7021C81.6843 14.7029 81.8957 14.7688 82.0741 14.8912C82.2526 15.0135 82.3898 15.1866 82.468 15.3879L89.3938 33.3963C89.4569 33.559 89.4793 33.7345 89.4589 33.9078C89.4386 34.081 89.3762 34.2467 89.2771 34.3905C89.178 34.5343 89.0451 34.6517 88.8901 34.7329C88.7351 34.814 88.5626 34.8562 88.3875 34.8559Z" fill="white"/>
<path d="M88.3878 35.3835H1.60652C1.34807 35.3829 1.09356 35.3204 0.864468 35.2012C0.635377 35.082 0.438406 34.9096 0.290155 34.6987C0.141905 34.4878 0.0467185 34.2445 0.0126239 33.9893C-0.0214706 33.7341 0.00653484 33.4744 0.0942582 33.2322L6.83763 14.7842C6.95222 14.4754 7.15931 14.2091 7.43086 14.0214C7.7024 13.8337 8.02527 13.7337 8.35577 13.7349L81.4679 14.1687C81.7925 14.1701 82.1091 14.2694 82.3759 14.4536C82.6427 14.6378 82.8472 14.8981 82.9625 15.2004L89.8883 33.2029C89.9817 33.4457 90.0145 33.7076 89.9838 33.9658C89.9532 34.2241 89.8601 34.4711 89.7125 34.6856C89.5649 34.9001 89.3673 35.0756 89.1365 35.1972C88.9058 35.3188 88.6488 35.3827 88.3878 35.3835ZM8.36166 14.7901C8.24888 14.7893 8.1386 14.8231 8.04591 14.8871C7.95322 14.9511 7.88264 15.0422 7.84384 15.1477L1.10635 33.5899C1.0742 33.6726 1.06327 33.762 1.07457 33.85C1.08587 33.9381 1.11904 34.0219 1.17107 34.0939C1.22077 34.1659 1.28765 34.2246 1.36571 34.2645C1.44377 34.3044 1.53057 34.3244 1.61828 34.3226H88.3878C88.4769 34.3241 88.565 34.3035 88.6443 34.2629C88.7236 34.2223 88.7916 34.1628 88.8422 34.0898C88.8929 34.0167 88.9246 33.9323 88.9346 33.844C88.9447 33.7558 88.9327 33.6665 88.8997 33.584L81.9916 15.5757C81.952 15.4728 81.8816 15.3845 81.7901 15.3226C81.6986 15.2608 81.5903 15.2284 81.4797 15.2297L8.36755 14.7901H8.36166Z" fill="#D1193F"/>
<path d="M70.3759 79.109L70.2053 32.3177L45.2854 0.826553L19.6182 31.8839L19.8594 79.109H70.3759Z" fill="white"/>
<path d="M70.3758 79.6366H19.8592C19.79 79.6374 19.7213 79.6244 19.657 79.5985C19.5928 79.5727 19.5344 79.5343 19.4852 79.4858C19.4359 79.4372 19.3968 79.3796 19.3701 79.3159C19.3434 79.2522 19.3297 79.1838 19.3297 79.1148L19.0884 31.8839C19.0871 31.7594 19.131 31.6387 19.212 31.544L44.8733 0.474882C44.9263 0.416299 44.9906 0.368869 45.0624 0.335629C45.1342 0.302389 45.212 0.283978 45.2911 0.281387C45.3703 0.282203 45.4483 0.300449 45.5195 0.334913C45.5907 0.369378 45.6534 0.419255 45.703 0.48075L70.617 31.9778C70.6933 32.068 70.735 32.1822 70.7347 32.3002L70.9053 79.0913C70.9061 79.1608 70.893 79.2298 70.8667 79.2941C70.8403 79.3585 70.8013 79.417 70.752 79.4662C70.7027 79.5153 70.644 79.5541 70.5794 79.5804C70.5148 79.6066 70.4455 79.6198 70.3758 79.619V79.6366ZM20.3594 78.5814H69.8168L69.6461 32.5053L45.244 1.67077L20.1476 32.0832L20.3594 78.5814Z" fill="#D1193F"/>
<path d="M24.5376 71.6641L33.1757 71.7052C33.2813 71.706 33.386 71.6858 33.4838 71.6461C33.5815 71.6064 33.6704 71.5479 33.7454 71.4738C33.8203 71.3997 33.8798 71.3114 33.9204 71.2143C33.961 71.1172 33.9818 71.0131 33.9818 70.9079V54.2713C33.9818 54.0583 33.8969 53.854 33.7457 53.7034C33.5946 53.5528 33.3895 53.4681 33.1757 53.4681L24.5376 53.4212C24.3238 53.4212 24.1187 53.5059 23.9675 53.6565C23.8164 53.8071 23.7314 54.0114 23.7314 54.2244V70.8609C23.733 71.0735 23.8184 71.2768 23.9693 71.4271C24.1201 71.5774 24.3243 71.6626 24.5376 71.6641Z" fill="white"/>
<path d="M33.1521 72.2386L24.514 72.1916C24.1597 72.1916 23.8199 72.0515 23.5694 71.8019C23.3189 71.5524 23.1782 71.2139 23.1782 70.8609V54.2244C23.1782 53.8715 23.3189 53.5329 23.5694 53.2834C23.8199 53.0338 24.1597 52.8937 24.514 52.8937L33.158 52.9406C33.5112 52.9422 33.8494 53.0829 34.0986 53.3323C34.3479 53.5817 34.4878 53.9194 34.4878 54.2713V70.9079C34.4878 71.0826 34.4533 71.2556 34.3861 71.4171C34.319 71.5785 34.2206 71.7253 34.0966 71.8489C33.9725 71.9724 33.8253 72.0704 33.6633 72.1373C33.5012 72.2041 33.3275 72.2386 33.1521 72.2386ZM24.514 53.9489C24.4779 53.9489 24.4422 53.956 24.409 53.9699C24.3758 53.9838 24.3457 54.0042 24.3205 54.0299C24.2952 54.0556 24.2754 54.0859 24.2622 54.1193C24.2489 54.1527 24.2425 54.1885 24.2433 54.2244V70.8609C24.2425 70.8968 24.2489 70.9326 24.2622 70.966C24.2754 70.9994 24.2952 71.0298 24.3205 71.0554C24.3457 71.0811 24.3758 71.1015 24.409 71.1154C24.4422 71.1293 24.4779 71.1366 24.514 71.1366L33.1521 71.1775C33.2234 71.176 33.2914 71.1472 33.3418 71.0969C33.3923 71.0467 33.4213 70.9789 33.4228 70.9079V54.2713C33.4228 54.1983 33.3936 54.1281 33.3417 54.0764C33.2899 54.0247 33.2195 53.9957 33.1462 53.9957L24.514 53.9489Z" fill="#D1193F"/>
<path d="M56.542 71.6641L65.1801 71.7052C65.2857 71.706 65.3904 71.6858 65.4881 71.6461C65.5859 71.6064 65.6748 71.5479 65.7498 71.4738C65.8247 71.3997 65.8842 71.3114 65.9248 71.2143C65.9654 71.1172 65.9862 71.0131 65.9862 70.9079V54.2713C65.9862 54.0583 65.9013 53.854 65.7501 53.7034C65.599 53.5528 65.3939 53.4681 65.1801 53.4681L56.542 53.4212C56.3282 53.4212 56.1231 53.5059 55.9719 53.6565C55.8208 53.8071 55.7358 54.0114 55.7358 54.2244V70.8609C55.7358 71.0739 55.8208 71.2782 55.9719 71.4288C56.1231 71.5794 56.3282 71.6641 56.542 71.6641Z" fill="white"/>
<path d="M65.1799 72.2386L56.5359 72.1916C56.1827 72.1901 55.8445 72.0493 55.5952 71.7999C55.346 71.5505 55.2061 71.2128 55.2061 70.8609V54.2244C55.2061 53.8715 55.3468 53.5329 55.5973 53.2834C55.8478 53.0338 56.1875 52.8937 56.5418 52.8937L65.1799 52.9406C65.5342 52.9406 65.8739 53.0808 66.1244 53.3303C66.3749 53.5799 66.5157 53.9184 66.5157 54.2713V70.9079C66.5157 71.2608 66.3749 71.5993 66.1244 71.8489C65.8739 72.0984 65.5342 72.2386 65.1799 72.2386ZM56.5359 53.9489C56.4636 53.9504 56.3948 53.9801 56.3442 54.0316C56.2936 54.0831 56.2652 54.1523 56.2653 54.2244V70.8609C56.2653 70.934 56.2944 71.0042 56.3462 71.0559C56.3981 71.1075 56.4684 71.1366 56.5418 71.1366L65.1799 71.1775C65.2523 71.1775 65.3217 71.1493 65.3734 71.0989C65.4251 71.0485 65.455 70.9799 65.4565 70.9079V54.2713C65.4565 54.1983 65.4273 54.1281 65.3755 54.0764C65.3236 54.0247 65.2533 53.9957 65.1799 53.9957L56.5359 53.9489Z" fill="#D1193F"/>
<path d="M51.7285 79.4782H38.3241V54.0544C38.3241 53.7772 38.3789 53.5028 38.4854 53.2468C38.5918 52.9907 38.7479 52.7581 38.9446 52.5621C39.1413 52.3661 39.3748 52.2107 39.6318 52.1047C39.8888 51.9986 40.1643 51.944 40.4425 51.944H49.6102C50.172 51.944 50.7108 52.1663 51.1081 52.5621C51.5053 52.9579 51.7285 53.4947 51.7285 54.0544V79.4782Z" fill="white"/>
<path d="M51.7289 80H38.3245C38.184 80 38.0494 79.9444 37.95 79.8454C37.8507 79.7465 37.7949 79.6124 37.7949 79.4725V54.0485C37.7965 53.3493 38.0759 52.6793 38.5722 52.185C39.0684 51.6906 39.7411 51.4121 40.4428 51.4106H49.6282C50.33 51.4121 51.0026 51.6906 51.4988 52.185C51.9951 52.6793 52.2746 53.3493 52.2761 54.0485V79.4725C52.2762 79.5433 52.2619 79.6132 52.2342 79.6784C52.2065 79.7436 52.1659 79.8026 52.1148 79.8519C52.0638 79.9011 52.0033 79.9396 51.937 79.9651C51.8707 79.9905 51.7999 80.0024 51.7289 80ZM38.8541 78.9448H51.2111V54.0485C51.2111 53.6287 51.0437 53.2261 50.7457 52.9293C50.4478 52.6325 50.0437 52.4658 49.6223 52.4658H40.4428C40.0215 52.4658 39.6174 52.6325 39.3194 52.9293C39.0215 53.2261 38.8541 53.6287 38.8541 54.0485V78.9448Z" fill="#D1193F"/>
<path d="M16.8467 34.305L44.9206 0.756247C44.9813 0.682607 45.0576 0.623229 45.1441 0.582502C45.2306 0.541776 45.3251 0.520676 45.4207 0.520676C45.5164 0.520676 45.6109 0.541776 45.6974 0.582502C45.7838 0.623229 45.8602 0.682607 45.9209 0.756247L73.1651 34.3167C73.2058 34.365 73.2317 34.4239 73.2397 34.4865C73.2476 34.549 73.2373 34.6125 73.21 34.6694C73.1827 34.7263 73.1395 34.7741 73.0857 34.8072C73.0318 34.8403 72.9695 34.8573 72.9062 34.856H70.0818L45.409 3.85145L19.2534 34.9674H17.1645C17.087 34.9683 17.0108 34.9471 16.945 34.9064C16.8792 34.8656 16.8265 34.807 16.7931 34.7374C16.7597 34.6677 16.747 34.59 16.7565 34.5134C16.766 34.4368 16.7973 34.3645 16.8467 34.305Z" fill="white"/>
<path d="M19.2532 35.495H17.1643C16.9851 35.4966 16.8091 35.4466 16.6578 35.3509C16.5064 35.2552 16.386 35.1179 16.3111 34.9556C16.2352 34.7965 16.207 34.619 16.2299 34.4442C16.2529 34.2695 16.326 34.1051 16.4405 33.9708L44.4968 0.427928C44.6068 0.296341 44.7444 0.190425 44.8999 0.117506C45.0555 0.0445874 45.2252 0.00645341 45.3971 0.00587463C45.5709 0.00701983 45.7423 0.0465084 45.899 0.121514C46.0557 0.196519 46.1937 0.305172 46.3032 0.439664L73.571 33.9884C73.6735 34.1156 73.7376 34.2691 73.7559 34.4312C73.7743 34.5933 73.746 34.7573 73.6745 34.9041C73.603 35.0508 73.4913 35.1742 73.3521 35.2602C73.2129 35.3461 73.0522 35.3909 72.8884 35.3894H70.0698C69.9904 35.3899 69.912 35.3721 69.8406 35.3376C69.7692 35.303 69.7067 35.2526 69.6579 35.1902L45.3853 4.70729L19.6475 35.3309C19.596 35.3829 19.5346 35.4242 19.4669 35.4524C19.3992 35.4805 19.3266 35.4951 19.2532 35.495ZM17.4232 34.4398H19.0296L45.0264 3.5114C45.0799 3.45388 45.1444 3.40766 45.2162 3.37543C45.2879 3.34321 45.3655 3.32561 45.4442 3.32377C45.5227 3.32331 45.6003 3.34113 45.6708 3.37572C45.7413 3.41031 45.8027 3.46079 45.8502 3.52313L70.3699 34.3285H72.5295L45.5089 1.09614C45.4795 1.06097 45.4383 1.04349 45.4148 1.05521C45.3979 1.05498 45.3812 1.05855 45.3659 1.06566C45.3506 1.07277 45.3371 1.08311 45.3265 1.09614L17.4232 34.4398Z" fill="#D1193F"/>
<path d="M44.9968 23.079C41.615 23.079 38.3717 24.4175 35.9803 26.7998C33.589 29.1821 32.2456 32.4132 32.2456 35.7822V38.6077H57.7539V35.7822C57.7524 32.4126 56.4076 29.1815 54.0154 26.7993C51.6231 24.4172 48.3792 23.079 44.9968 23.079Z" fill="white"/>
<path d="M57.7543 39.1178H32.2459C32.1759 39.1185 32.1064 39.1054 32.0414 39.0793C31.9765 39.0531 31.9174 39.0144 31.8676 38.9653C31.8178 38.9163 31.7783 38.8578 31.7513 38.7934C31.7243 38.7291 31.7104 38.66 31.7104 38.5902V35.7647C31.7104 32.2541 33.1103 28.8873 35.602 26.4049C38.0938 23.9226 41.4733 22.528 44.9972 22.528C48.521 22.528 51.9005 23.9226 54.3923 26.4049C56.884 28.8873 58.2839 32.2541 58.2839 35.7647V38.5902C58.2839 38.7301 58.2281 38.8642 58.1287 38.9632C58.0294 39.0621 57.8947 39.1178 57.7543 39.1178ZM32.7755 38.0625H57.2247V35.7647C57.1545 32.581 55.8358 29.5512 53.5509 27.3243C51.266 25.0974 48.1966 23.8504 45.0001 23.8504C41.8036 23.8504 38.7342 25.0974 36.4493 27.3243C34.1644 29.5512 32.8456 32.581 32.7755 35.7647V38.0625Z" fill="#D1193F"/>
</g>
<defs>
<clipPath id="clip0_645_4676">
<rect width="90" height="80" fill="white"/>
</clipPath>
</defs>
</svg>
