<svg width="24" height="24" viewBox="0 0 24 24" fill="none" xmlns="http://www.w3.org/2000/svg">
<path fill-rule="evenodd" clip-rule="evenodd" d="M20.2683 3.29282L20.7073 3.73193C20.8945 3.91891 20.9997 4.17258 21 4.43718V4.94282C21.0033 5.21202 20.8977 5.47115 20.7073 5.66138L19.4768 6.87227C19.4143 6.93524 19.3293 6.97067 19.2407 6.97067C19.152 6.97067 19.067 6.93524 19.0045 6.87227L17.1355 4.97609C17.0087 4.84674 17.0087 4.63972 17.1355 4.51036L18.3394 3.29282C18.5296 3.10231 18.7886 2.99674 19.0577 3.00008H19.5633C19.8278 3.00031 20.0814 3.10561 20.2683 3.29282ZM18.213 8.12304C18.3397 7.99368 18.3397 7.78666 18.213 7.65731L16.3107 5.78109C16.2482 5.71812 16.1632 5.68269 16.0745 5.68269C15.9859 5.68269 15.9009 5.71812 15.8384 5.78109L10.4707 11.1503C10.3409 11.2789 10.2391 11.4329 10.1714 11.6027L9.02736 14.4902C8.96256 14.6401 9.0161 14.8149 9.15374 14.9027C9.24801 14.9968 9.38934 15.0256 9.51292 14.9759L12.3996 13.8049C12.5694 13.7372 12.7233 13.6353 12.8519 13.5055L18.213 8.12304Z" fill="white"/>
<path d="M12 5C12.5523 5 13 4.55228 13 4C13 3.44772 12.5523 3 12 3V5ZM21 13C21 12.4477 20.5523 12 20 12C19.4477 12 19 12.4477 19 13H21ZM17 19H7V21H17V19ZM5 17V7H3V17H5ZM7 5H12V3H7V5ZM19 13V17H21V13H19ZM7 19C5.89543 19 5 18.1046 5 17H3C3 19.2091 4.79086 21 7 21V19ZM17 21C19.2091 21 21 19.2091 21 17H19C19 18.1046 18.1046 19 17 19V21ZM5 7C5 5.89543 5.89543 5 7 5V3C4.79086 3 3 4.79086 3 7H5Z" fill="white"/>
</svg>
