<svg width="18" height="12" viewBox="0 0 18 12" fill="none" xmlns="http://www.w3.org/2000/svg">
<path d="M0.924 12V4.58H2.52V5.63H2.576C2.66 5.48067 2.78133 5.31267 2.94 5.126C3.108 4.93933 3.32733 4.78067 3.598 4.65C3.86867 4.51 4.20933 4.44 4.62 4.44C5.17067 4.44 5.628 4.57067 5.992 4.832C6.356 5.09333 6.62667 5.43867 6.804 5.868H6.832C7.028 5.49467 7.31267 5.16333 7.686 4.874C8.05933 4.58467 8.554 4.44 9.17 4.44C9.69267 4.44 10.136 4.566 10.5 4.818C10.864 5.06067 11.1347 5.392 11.312 5.812C11.4987 6.22267 11.592 6.68933 11.592 7.212V12H9.996V7.436C9.996 6.95067 9.87933 6.554 9.646 6.246C9.41267 5.938 9.06733 5.784 8.61 5.784C8.23667 5.784 7.93333 5.88667 7.7 6.092C7.476 6.29733 7.31267 6.554 7.21 6.862C7.10733 7.16067 7.056 7.464 7.056 7.772V12H5.46V7.436C5.46 6.95067 5.34333 6.554 5.11 6.246C4.87667 5.938 4.53133 5.784 4.074 5.784C3.70067 5.784 3.39733 5.88667 3.164 6.092C2.94 6.29733 2.77667 6.554 2.674 6.862C2.57133 7.16067 2.52 7.464 2.52 7.772V12H0.924ZM13.5178 6.246V5.322L14.5678 4.482C15.1184 4.034 15.5571 3.67467 15.8838 3.404C16.2198 3.124 16.3878 2.82067 16.3878 2.494C16.3878 2.25133 16.3084 2.06933 16.1498 1.948C15.9911 1.82667 15.8091 1.766 15.6038 1.766C15.3984 1.766 15.2071 1.836 15.0298 1.976C14.8618 2.116 14.7778 2.33067 14.7778 2.62H13.4898C13.4898 2.16267 13.5924 1.78467 13.7978 1.486C14.0031 1.18733 14.2691 0.963333 14.5958 0.814C14.9318 0.664666 15.2818 0.589999 15.6458 0.589999C16.0378 0.589999 16.3924 0.664666 16.7098 0.814C17.0364 0.963333 17.2931 1.17333 17.4798 1.444C17.6758 1.71467 17.7738 2.02733 17.7738 2.382C17.7738 2.89533 17.5778 3.34333 17.1858 3.726C16.8031 4.10867 16.2804 4.52867 15.6178 4.986L15.4778 5.084H17.8158V6.246H13.5178Z" fill="#383F47"/>
</svg>
