<svg width="20" height="20" viewBox="0 0 20 20" fill="none" xmlns="http://www.w3.org/2000/svg">
<path d="M1.9082 6.48323V14.5916C1.9082 16.1749 3.0332 16.8249 4.39987 16.0416L6.3582 14.9249C6.7832 14.6832 7.49154 14.6582 7.9332 14.8832L12.3082 17.0749C12.7499 17.2916 13.4582 17.2749 13.8832 17.0332L17.4915 14.9666C17.9499 14.6999 18.3332 14.0499 18.3332 13.5166V5.40823C18.3332 3.8249 17.2082 3.1749 15.8415 3.95823L13.8832 5.0749C13.4582 5.31657 12.7499 5.34156 12.3082 5.11656L7.9332 2.93323C7.49154 2.71656 6.7832 2.73323 6.3582 2.9749L2.74987 5.04157C2.2832 5.30823 1.9082 5.95823 1.9082 6.48323Z" stroke="#5A6178" stroke-width="1.5" stroke-linecap="round" stroke-linejoin="round"/>
<path d="M7.1333 3.33325V14.1666" stroke="#5A6178" stroke-width="1.5" stroke-linecap="round" stroke-linejoin="round"/>
<path d="M13.1084 5.5166V16.6666" stroke="#5A6178" stroke-width="1.5" stroke-linecap="round" stroke-linejoin="round"/>
</svg>
