<svg width="34" height="34" viewBox="0 0 34 34" fill="none" xmlns="http://www.w3.org/2000/svg">
<path d="M23.9835 0.333374H10.0168C3.95016 0.333374 0.333496 3.95004 0.333496 10.0167V23.9667C0.333496 30.05 3.95016 33.6667 10.0168 33.6667H23.9668C30.0335 33.6667 33.6502 30.05 33.6502 23.9834V10.0167C33.6668 3.95004 30.0502 0.333374 23.9835 0.333374ZM23.6668 18.25H18.2502V23.6667C18.2502 24.35 17.6835 24.9167 17.0002 24.9167C16.3168 24.9167 15.7502 24.35 15.7502 23.6667V18.25H10.3335C9.65016 18.25 9.0835 17.6834 9.0835 17C9.0835 16.3167 9.65016 15.75 10.3335 15.75H15.7502V10.3334C15.7502 9.65004 16.3168 9.08337 17.0002 9.08337C17.6835 9.08337 18.2502 9.65004 18.2502 10.3334V15.75H23.6668C24.3502 15.75 24.9168 16.3167 24.9168 17C24.9168 17.6834 24.3502 18.25 23.6668 18.25Z" fill="#D1193F"/>
</svg>
