<svg width="20" height="20" viewBox="0 0 20 20" fill="none" xmlns="http://www.w3.org/2000/svg">
<path d="M16.5832 11.25H3.4165C2.1665 11.25 1.6665 11.7833 1.6665 13.1083V16.475C1.6665 17.8 2.1665 18.3333 3.4165 18.3333H16.5832C17.8332 18.3333 18.3332 17.8 18.3332 16.475V13.1083C18.3332 11.7833 17.8332 11.25 16.5832 11.25Z" stroke="#5A6178" stroke-width="1.5" stroke-linecap="round" stroke-linejoin="round"/>
<path d="M16.5832 1.66675H3.4165C2.1665 1.66675 1.6665 2.20008 1.6665 3.52508V6.89175C1.6665 8.21675 2.1665 8.75008 3.4165 8.75008H16.5832C17.8332 8.75008 18.3332 8.21675 18.3332 6.89175V3.52508C18.3332 2.20008 17.8332 1.66675 16.5832 1.66675Z" stroke="#5A6178" stroke-width="1.5" stroke-linecap="round" stroke-linejoin="round"/>
</svg>
