<svg width="24" height="24" viewBox="0 0 24 24" fill="none" xmlns="http://www.w3.org/2000/svg">
<path opacity="0.4" d="M18.5104 1.80005C18.0104 1.80005 17.6104 2.20005 17.6104 2.70005V7.35005C17.6104 7.85005 18.0104 8.25005 18.5104 8.25005C19.0104 8.25005 19.4104 7.85005 19.4104 7.35005V2.70005C19.4104 2.20005 19.0104 1.80005 18.5104 1.80005Z" fill="#D1193F"/>
<path d="M11.9996 15.75C11.4996 15.75 11.0996 16.15 11.0996 16.65V21.3C11.0996 21.8 11.4996 22.2 11.9996 22.2C12.4996 22.2 12.8996 21.8 12.8996 21.3V16.65C12.8996 16.16 12.4996 15.75 11.9996 15.75Z" fill="#D1193F"/>
<path opacity="0.4" d="M5.48984 1.80005C4.98984 1.80005 4.58984 2.20005 4.58984 2.70005V7.35005C4.58984 7.85005 4.98984 8.25005 5.48984 8.25005C5.98984 8.25005 6.38984 7.85005 6.38984 7.35005V2.70005C6.38984 2.20005 5.97984 1.80005 5.48984 1.80005Z" fill="#D1193F"/>
<path opacity="0.4" d="M7.35047 10.1699H3.63047C3.13047 10.1699 2.73047 10.5699 2.73047 11.0699C2.73047 11.5699 3.13047 11.9699 3.63047 11.9699H4.59047V21.2999C4.59047 21.7999 4.99047 22.1999 5.49047 22.1999C5.99047 22.1999 6.39047 21.7999 6.39047 21.2999V11.9699H7.35047C7.85047 11.9699 8.25047 11.5699 8.25047 11.0699C8.25047 10.5699 7.84047 10.1699 7.35047 10.1699Z" fill="#D1193F"/>
<path opacity="0.4" d="M20.37 10.1699H16.65C16.15 10.1699 15.75 10.5699 15.75 11.0699C15.75 11.5699 16.15 11.9699 16.65 11.9699H17.61V21.2999C17.61 21.7999 18.01 22.1999 18.51 22.1999C19.01 22.1999 19.41 21.7999 19.41 21.2999V11.9699H20.37C20.87 11.9699 21.27 11.5699 21.27 11.0699C21.27 10.5699 20.87 10.1699 20.37 10.1699Z" fill="#D1193F"/>
<path d="M13.8602 12.03H12.9002V2.70005C12.9002 2.20005 12.5002 1.80005 12.0002 1.80005C11.5002 1.80005 11.1002 2.20005 11.1002 2.70005V12.03H10.1402C9.64023 12.03 9.24023 12.43 9.24023 12.93C9.24023 13.43 9.64023 13.83 10.1402 13.83H13.8602C14.3602 13.83 14.7602 13.43 14.7602 12.93C14.7602 12.43 14.3602 12.03 13.8602 12.03Z" fill="#D1193F"/>
</svg>
