<svg width="24" height="24" viewBox="0 0 24 24" fill="none" xmlns="http://www.w3.org/2000/svg">
<path d="M21 11.3449V7.125C20.9993 6.52847 20.762 5.95657 20.3402 5.53476C19.9184 5.11295 19.3465 4.87568 18.75 4.875H5.25C4.65347 4.87568 4.08157 5.11295 3.65976 5.53476C3.23795 5.95657 3.00068 6.52847 3 7.125V11.3449C2.35643 11.512 1.78646 11.8879 1.37931 12.4135C0.97217 12.9392 0.750848 13.5851 0.75 14.25V19.5C0.750447 19.8977 0.908625 20.279 1.18983 20.5602C1.47104 20.8414 1.85231 20.9996 2.25 21H3V23.25H4.5V21H19.5V23.25H21V21H21.75C22.1477 20.9996 22.529 20.8414 22.8102 20.5602C23.0914 20.279 23.2496 19.8977 23.25 19.5V14.25C23.2492 13.5851 23.0278 12.9392 22.6207 12.4135C22.2135 11.8879 21.6436 11.512 21 11.3449ZM5.25 19.5H2.25V14.25C2.25 13.8522 2.40804 13.4706 2.68934 13.1893C2.97064 12.908 3.35218 12.75 3.75 12.75C4.14782 12.75 4.52936 12.908 4.81066 13.1893C5.09196 13.4706 5.25 13.8522 5.25 14.25V19.5ZM17.25 19.5H6.75V15H17.25V19.5ZM17.3449 13.5H6.65508C6.52004 12.9816 6.24913 12.5085 5.8703 12.1297C5.49147 11.7509 5.01844 11.48 4.5 11.3449V7.125C4.50024 6.92616 4.57933 6.73553 4.71993 6.59493C4.86053 6.45433 5.05116 6.37524 5.25 6.375H18.75C18.9488 6.37524 19.1395 6.45433 19.2801 6.59493C19.4207 6.73553 19.4998 6.92616 19.5 7.125V11.3449C18.9816 11.48 18.5085 11.7509 18.1297 12.1297C17.7509 12.5085 17.48 12.9816 17.3449 13.5ZM21.75 19.5H18.75V14.25C18.75 13.8522 18.908 13.4706 19.1893 13.1893C19.4706 12.908 19.8522 12.75 20.25 12.75C20.6478 12.75 21.0294 12.908 21.3107 13.1893C21.592 13.4706 21.75 13.8522 21.75 14.25L21.7509 19.5H21.75Z" fill="#646D84"/>
</svg>
