<svg width="24" height="24" viewBox="0 0 24 24" fill="none" xmlns="http://www.w3.org/2000/svg">
<path d="M17.29 4.13998L17.22 7.92998C17.21 8.44998 17.54 9.13998 17.96 9.44998L20.44 11.33C22.03 12.53 21.77 14 19.87 14.6L16.64 15.61C16.1 15.78 15.53 16.37 15.39 16.92L14.62 19.86C14.01 22.18 12.49 22.41 11.23 20.37L9.47003 17.52C9.15003 17 8.39003 16.61 7.79003 16.64L4.45003 16.81C2.06003 16.93 1.38003 15.55 2.94003 13.73L4.92003 11.43C5.29003 11 5.46003 10.2 5.29003 9.65998L4.27003 6.41998C3.68003 4.51998 4.74003 3.46998 6.63003 4.08998L9.58003 5.05998C10.08 5.21998 10.83 5.10998 11.25 4.79998L14.33 2.57998C16 1.38998 17.33 2.08998 17.29 4.13998Z" fill="#FFD200"/>
<path d="M21.4399 20.47L18.4099 17.44C18.1199 17.15 17.6399 17.15 17.3499 17.44C17.0599 17.73 17.0599 18.21 17.3499 18.5L20.3799 21.53C20.5299 21.68 20.7199 21.75 20.9099 21.75C21.0999 21.75 21.2899 21.68 21.4399 21.53C21.7299 21.24 21.7299 20.76 21.4399 20.47Z" fill="#FFD200"/>
</svg>
