<svg width="24" height="24" viewBox="0 0 24 24" fill="none" xmlns="http://www.w3.org/2000/svg">
<path fill-rule="evenodd" clip-rule="evenodd" d="M4.41965 5.41891C5.10415 4.73441 6.03255 4.34985 7.00059 4.34985H17.0006C17.9686 4.34985 18.897 4.73441 19.5815 5.41891C20.266 6.10342 20.6506 7.03181 20.6506 7.99985V10.4308C21.1099 10.547 21.5338 10.7854 21.8744 11.126C22.3714 11.623 22.6506 12.297 22.6506 12.9999V17.9999C22.6506 18.4375 22.4767 18.8571 22.1673 19.1666C21.8579 19.476 21.4382 19.6499 21.0006 19.6499H3.00059C2.56298 19.6499 2.1433 19.476 1.83386 19.1666C1.52442 18.8571 1.35059 18.4375 1.35059 17.9999V12.9999C1.35059 12.297 1.62978 11.623 2.12675 11.126C2.46742 10.7854 2.89128 10.547 3.35059 10.4308V7.99985C3.35059 7.03181 3.73514 6.10342 4.41965 5.41891ZM5.33889 6.33815C5.7796 5.89744 6.37733 5.64985 7.00059 5.64985H11.3506V10.3499H4.65059V7.99985C4.65059 7.3766 4.89817 6.77886 5.33889 6.33815ZM4.00059 11.6499C3.64254 11.6499 3.29917 11.7921 3.04599 12.0453C2.79282 12.2984 2.65059 12.6418 2.65059 12.9999V17.9999C2.65059 18.0927 2.68746 18.1817 2.7531 18.2473C2.81874 18.313 2.90776 18.3499 3.00059 18.3499H21.0006C21.0934 18.3499 21.1824 18.313 21.2481 18.2473C21.3137 18.1817 21.3506 18.0927 21.3506 17.9999V12.9999C21.3506 12.6418 21.2084 12.2984 20.9552 12.0453C20.702 11.7921 20.3586 11.6499 20.0006 11.6499C19.6425 11.6499 19.2992 11.7921 19.046 12.0453C18.7928 12.2984 18.6506 12.6418 18.6506 12.9999V13.9999C18.6506 14.3588 18.3596 14.6499 18.0006 14.6499H6.00059C5.6416 14.6499 5.35059 14.3588 5.35059 13.9999V12.9999C5.35059 12.6418 5.20835 12.2984 4.95518 12.0453C4.70201 11.7921 4.35863 11.6499 4.00059 11.6499ZM11.3506 13.3499H6.65059V12.9999C6.65059 12.5208 6.52089 12.0552 6.28095 11.6499H11.3506V13.3499ZM12.6506 13.3499H17.3506V12.9999C17.3506 12.5208 17.4803 12.0552 17.7202 11.6499H12.6506V13.3499ZM19.3506 10.3499H12.6506V5.64985H17.0006C17.6238 5.64985 18.2216 5.89744 18.6623 6.33815C19.103 6.77886 19.3506 7.37659 19.3506 7.99985V10.3499Z" fill="#646D84"/>
</svg>
