<svg width="24" height="24" viewBox="0 0 24 24" fill="none" xmlns="http://www.w3.org/2000/svg">
<path fill-rule="evenodd" clip-rule="evenodd" d="M4.6998 6.41148V12.3001H21.9998C22.1855 12.3001 22.3635 12.3738 22.4948 12.5051C22.6261 12.6364 22.6998 12.8144 22.6998 13.0001C22.6998 13.1857 22.6261 13.3638 22.4948 13.495C22.3635 13.6263 22.1855 13.7001 21.9998 13.7001H20.6998V16.9992C20.6982 17.5557 20.5243 18.098 20.202 18.5517C19.8798 19.0054 19.425 19.3482 18.9001 19.5331L18.6998 19.6037V21.0001C18.6998 21.1857 18.6261 21.3638 18.4948 21.495C18.3635 21.6263 18.1855 21.7001 17.9998 21.7001C17.8142 21.7001 17.6361 21.6263 17.5048 21.495C17.3736 21.3638 17.2998 21.1857 17.2998 21.0001V19.7001H6.6998V21.0001C6.6998 21.1857 6.62605 21.3638 6.49478 21.495C6.3635 21.6263 6.18546 21.7001 5.9998 21.7001C5.81415 21.7001 5.63611 21.6263 5.50483 21.495C5.37356 21.3638 5.2998 21.1857 5.2998 21.0001V19.6037L5.09947 19.5331C4.57459 19.3482 4.1198 19.0054 3.79757 18.5517C3.47541 18.0981 3.30154 17.5559 3.2998 16.9996V13.7001H1.9998C1.81415 13.7001 1.63611 13.6263 1.50483 13.495C1.37355 13.3638 1.2998 13.1857 1.2998 13.0001C1.2998 12.8144 1.37355 12.6364 1.50483 12.5051C1.63611 12.3738 1.81415 12.3001 1.9998 12.3001H3.2998L3.2998 6.4094C3.29847 5.80785 3.44415 5.21509 3.72416 4.68269C4.00416 4.15028 4.41002 3.69436 4.90642 3.35459C5.40282 3.01481 5.97472 2.80147 6.57237 2.73314C7.17003 2.6648 7.77533 2.74353 8.33561 2.96248L8.48911 3.02247L8.62207 2.92509C9.23638 2.47515 9.99122 2.25949 10.7505 2.31698C11.5097 2.37446 12.2236 2.70148 12.7631 3.23864L13.8227 4.29819C13.9539 4.42946 14.0276 4.60746 14.0276 4.79306C14.0276 4.97866 13.9538 5.1567 13.8226 5.28796L10.2876 8.82305C10.2225 8.88813 10.1453 8.93976 10.0604 8.97499C9.97538 9.01022 9.88429 9.02835 9.7923 9.02835C9.70031 9.02835 9.60923 9.01022 9.52425 8.97499C9.43927 8.93976 9.36195 8.88801 9.29694 8.82293L8.23737 7.76337C7.82262 7.34532 7.53164 6.82065 7.39664 6.24744C7.26161 5.67406 7.28792 5.07449 7.47267 4.51515L7.58999 4.15994L7.21778 4.12256C6.76113 4.0767 6.30122 4.16881 5.89745 4.38699C5.53215 4.58338 5.22748 4.8759 5.01639 5.23292C4.8055 5.58962 4.69603 5.99713 4.6998 6.41148ZM10.4998 3.70221C10.1241 3.70221 9.76053 3.81951 9.45798 4.03389L9.43878 4.01467L9.2266 4.227C8.88912 4.56472 8.69954 5.02262 8.69954 5.50006C8.69954 5.9775 8.88949 6.43578 9.22697 6.77349L9.7931 7.33803L12.3384 4.79276L11.7715 4.22752C11.4338 3.8911 10.9765 3.70221 10.4998 3.70221ZM19.2998 13.7001H4.6998V17.0001C4.6998 17.3448 4.83677 17.6755 5.08057 17.9193C5.32436 18.1631 5.65502 18.3001 5.9998 18.3001H17.9998C18.3446 18.3001 18.6752 18.1631 18.919 17.9193C19.1628 17.6755 19.2998 17.3448 19.2998 17.0001V13.7001Z" fill="#646D84"/>
</svg>
