<svg width="18" height="18" viewBox="0 0 18 18" fill="none" xmlns="http://www.w3.org/2000/svg">
<path d="M12.4917 0.666626H5.50835C2.47502 0.666626 0.666687 2.47496 0.666687 5.50829V12.4833C0.666687 15.525 2.47502 17.3333 5.50835 17.3333H12.4834C15.5167 17.3333 17.325 15.525 17.325 12.4916V5.50829C17.3334 2.47496 15.525 0.666626 12.4917 0.666626ZM12.9834 7.08329L8.25835 11.8083C8.14169 11.925 7.98335 11.9916 7.81669 11.9916C7.65002 11.9916 7.49169 11.925 7.37502 11.8083L5.01669 9.44996C4.77502 9.20829 4.77502 8.80829 5.01669 8.56663C5.25835 8.32496 5.65835 8.32496 5.90002 8.56663L7.81669 10.4833L12.1 6.19996C12.3417 5.95829 12.7417 5.95829 12.9834 6.19996C13.225 6.44163 13.225 6.83329 12.9834 7.08329Z" fill="#D1193F"/>
</svg>
